<?xml version="1.0" encoding="UTF-8" standalone="no"?>
<!-- Created with Inkscape (http://www.inkscape.org/) -->

<svg
   width="24mm"
   height="24mm"
   viewBox="0 0 24 24"
   version="1.1"
   id="svg1645"
   inkscape:version="1.1.2 (0a00cf5339, 2022-02-04)"
   sodipodi:docname="display-mode.svg"
   xmlns:inkscape="http://www.inkscape.org/namespaces/inkscape"
   xmlns:sodipodi="http://sodipodi.sourceforge.net/DTD/sodipodi-0.dtd"
   xmlns="http://www.w3.org/2000/svg"
   xmlns:svg="http://www.w3.org/2000/svg">
  <sodipodi:namedview
     id="namedview1647"
     pagecolor="#ffffff"
     bordercolor="#666666"
     borderopacity="1.0"
     inkscape:pageshadow="2"
     inkscape:pageopacity="0.0"
     inkscape:pagecheckerboard="0"
     inkscape:document-units="mm"
     showgrid="false"
     inkscape:snap-global="false"
     inkscape:zoom="3.9073056"
     inkscape:cx="-19.194813"
     inkscape:cy="60.271712"
     inkscape:window-width="1846"
     inkscape:window-height="1016"
     inkscape:window-x="74"
     inkscape:window-y="27"
     inkscape:window-maximized="1"
     inkscape:current-layer="layer1" />
  <defs
     id="defs1642" />
  <g
     inkscape:label="Layer 1"
     inkscape:groupmode="layer"
     id="layer1">
    <path
       style="fill:#000000;stroke-width:0.0734765"
       d="M 7.5788339,23.404272 C 7.3028091,23.194668 7.3023176,22.969175 7.5762239,22.20284 7.965212,21.114507 8.0091096,20.938553 7.9150951,20.844539 7.780583,20.710025 7.5254228,20.904229 7.3674446,21.261368 c -0.078913,0.178399 -0.1915288,0.324361 -0.2502561,0.324361 -0.1431511,0 -0.1345693,-0.09834 0.038132,-0.436841 0.2821742,-0.553106 0.762216,-0.747712 1.0903421,-0.442014 0.2327492,0.216837 0.2045543,0.519744 -0.1330977,1.429929 -0.1616482,0.435744 -0.2939062,0.870251 -0.2939062,0.965573 0,0.362712 0.4288227,0.102011 0.6319762,-0.3842 0.1195197,-0.286058 0.3663782,-0.360541 0.283054,-0.08541 -0.1943342,0.641684 -0.796257,1.043803 -1.1548458,0.771502 z m 6.9261731,-0.05127 c 0,-0.120839 0.06004,-0.14657 0.385751,-0.165322 l 0.385752,-0.0222 0.01974,-1.666852 0.01974,-1.666853 -0.239681,0.06873 c -0.38365,0.110022 -0.571294,0.08745 -0.571294,-0.06875 0,-0.108515 0.07358,-0.147298 0.349013,-0.184023 0.191957,-0.02559 0.457272,-0.112515 0.589588,-0.193158 0.468544,-0.285561 0.453008,-0.343896 0.474601,1.782137 l 0.01959,1.928758 0.385753,0.0222 c 0.325715,0.01875 0.385751,0.04448 0.385751,0.165322 0,0.135471 -0.05884,0.143112 -1.102148,0.143112 -1.043306,0 -1.102145,-0.0076 -1.102145,-0.143112 z m -5.0698766,-0.92344 c 0,-0.09733 0.260907,-0.108897 2.0696186,-0.09186 1.576274,0.01487 2.076907,0.0414 2.100201,0.111356 0.02399,0.07204 -0.422127,0.09185 -2.069617,0.09185 -1.8274536,0 -2.1002026,-0.01446 -2.1002026,-0.111356 z m 0,-1.173335 c 0,-0.0969 0.272749,-0.111355 2.1002026,-0.111355 1.64749,0 2.093609,0.01979 2.069617,0.09186 -0.0233,0.06995 -0.523927,0.09649 -2.100201,0.111355 -1.8087116,0.01706 -2.0696186,0.0055 -2.0696186,-0.09185 z m -1.3078796,-1.5221 c -0.1273001,-0.127301 -0.1084476,-0.311562 0.046194,-0.451515 0.1586687,-0.143594 0.3165536,-0.155623 0.4387467,-0.03343 0.1270689,0.127069 0.1089577,0.258431 -0.058783,0.426163 -0.1677317,0.167731 -0.299094,0.18585 -0.426164,0.05879 z M 6.0681949,17.585437 C 6.0869179,17.501867 7.7884493,15.527106 10.694159,12.216624 10.82073,12.072422 10.765699,11.989087 8.4395557,8.8026194 6.6615072,6.3669526 6.055214,5.4843659 6.055214,5.3317091 V 5.1269982 h 5.421466 5.421465 l 0.430043,1.0103015 c 0.236524,0.5556658 0.475527,1.1177608 0.531115,1.2490999 0.09687,0.2288567 0.09415,0.2387935 -0.06525,0.2386671 -0.117039,-7.34e-5 -0.22803,-0.097836 -0.374672,-0.3299543 C 17.139382,6.8519031 16.664825,6.4464563 16.10565,6.172694 15.042808,5.6523474 14.131305,5.5557193 10.54672,5.5833949 l -2.7459269,0.021201 0.434467,0.5878118 c 1.3418353,1.8154317 3.7715469,5.1779493 3.7715469,5.2195063 0,0.02666 -1.062776,1.260368 -2.3617266,2.741539 l -2.3617253,2.693044 2.6005243,0.02129 c 2.7789196,0.02274 4.5330926,-0.05838 5.2456776,-0.242598 1.044836,-0.270104 1.974495,-0.886044 2.319812,-1.536972 0.13447,-0.253479 0.22062,-0.33579 0.351446,-0.33579 0.107749,0 0.160481,0.03475 0.139398,0.09185 -0.01864,0.05051 -0.261906,0.711588 -0.540565,1.46905 l -0.506656,1.377206 -5.424276,5.15e-4 C 6.7798251,17.691481 6.04766,17.677148 6.0681949,17.58548 Z M 10.627419,3.3451933 c -0.05224,-0.064136 -3.68e-4,-0.3911031 0.171845,-1.0837778 0.259142,-1.0421673 0.303813,-1.4290515 0.174243,-1.50912948 -0.12448,-0.0769331 -0.355591,0.18387593 -0.407331,0.45967408 -0.04454,0.2373876 -0.200739,0.3877708 -0.299841,0.2886676 -0.07551,-0.075499 0.191905,-0.67790098 0.378899,-0.85357204 0.228126,-0.21431445 0.642404,-0.15876819 0.818324,0.10972064 l 0.116932,0.17845297 0.24307,-0.18539773 c 0.414343,-0.31603533 0.987626,-0.32919694 1.287269,-0.0295537 0.209735,0.20973512 0.186185,0.67630516 -0.07534,1.49275056 -0.232165,0.7247714 -0.27165,1.0035808 -0.142123,1.0035808 0.189781,0 0.387023,-0.1835934 0.519856,-0.483881 C 13.563409,2.3931958 13.825537,2.2612443 13.729156,2.5736899 13.517765,3.2589629 13.028034,3.5955146 12.58628,3.3590948 12.294154,3.2027537 12.281304,2.9617782 12.524596,2.2022712 12.776207,1.4167927 12.820567,1.0123307 12.674417,0.83623048 12.550481,0.68689099 12.424281,0.68774749 12.103208,0.84011471 11.728597,1.0178794 11.525083,1.3888877 11.303404,2.2981609 11.195028,2.7426936 11.060214,3.1807972 11.003819,3.2717243 10.889796,3.4555596 10.740973,3.484612 10.627426,3.3451999 Z"
       id="path1718" />
  </g>
</svg>
