<?xml version="1.0" encoding="UTF-8" standalone="no"?>
<!-- Created with Inkscape (http://www.inkscape.org/) -->

<svg
   width="24mm"
   height="24mm"
   viewBox="0 0 24 24"
   version="1.1"
   id="svg1645"
   inkscape:version="1.1.2 (0a00cf5339, 2022-02-04)"
   sodipodi:docname="inline-mode.svg"
   xmlns:inkscape="http://www.inkscape.org/namespaces/inkscape"
   xmlns:sodipodi="http://sodipodi.sourceforge.net/DTD/sodipodi-0.dtd"
   xmlns="http://www.w3.org/2000/svg"
   xmlns:svg="http://www.w3.org/2000/svg">
  <sodipodi:namedview
     id="namedview1647"
     pagecolor="#ffffff"
     bordercolor="#666666"
     borderopacity="1.0"
     inkscape:pageshadow="2"
     inkscape:pageopacity="0.0"
     inkscape:pagecheckerboard="0"
     inkscape:document-units="mm"
     showgrid="false"
     inkscape:snap-global="false"
     inkscape:zoom="5.7647107"
     inkscape:cx="57.938727"
     inkscape:cy="60.974439"
     inkscape:window-width="1846"
     inkscape:window-height="1016"
     inkscape:window-x="74"
     inkscape:window-y="27"
     inkscape:window-maximized="1"
     inkscape:current-layer="layer1" />
  <defs
     id="defs1642" />
  <g
     inkscape:label="Layer 1"
     inkscape:groupmode="layer"
     id="layer1">
    <path
       style="fill:#000000;stroke-width:0.0902532"
       d="m 12.287775,17.81632 c -0.279241,-0.260153 -0.250536,-0.555523 0.167365,-1.722115 0.364178,-1.016623 0.410531,-1.341526 0.201226,-1.410441 -0.156623,-0.05157 -0.568934,0.420013 -0.628762,0.719148 -0.03419,0.17098 -0.10598,0.250848 -0.225476,0.250848 -0.203961,0 -0.166245,-0.217807 0.119496,-0.690123 0.358289,-0.592232 0.915321,-0.737464 1.31098,-0.341806 0.281277,0.281279 0.266766,0.38807 -0.239811,1.764751 -0.382808,1.040323 -0.417098,1.207439 -0.266801,1.300327 0.159792,0.09876 0.492927,-0.189924 0.668513,-0.579304 0.09197,-0.203944 0.221964,-0.370807 0.288883,-0.370807 0.16624,0 0.152982,0.126326 -0.05631,0.536583 -0.346603,0.679395 -0.936251,0.918434 -1.339297,0.542939 z m 8.647287,0.0082 c 0,-0.148431 0.07374,-0.180036 0.473828,-0.20307 l 0.473829,-0.02728 0.02429,-2.063575 c 0.02262,-1.921954 0.0136,-2.059478 -0.131299,-2.003874 -0.08557,0.03284 -0.330029,0.08361 -0.54324,0.112837 -0.345525,0.04735 -0.387657,0.03346 -0.387657,-0.127901 0,-0.14706 0.07469,-0.189454 0.397967,-0.225893 0.218881,-0.02467 0.576923,-0.131488 0.795647,-0.237372 0.218724,-0.105878 0.425472,-0.192512 0.459439,-0.192512 0.03397,0 0.06176,1.051617 0.06176,2.336926 0,2.600138 -0.04015,2.446492 0.639154,2.446492 0.293462,0 0.353631,0.03072 0.353631,0.180506 0,0.172208 -0.06017,0.180506 -1.308671,0.180506 -1.236798,0 -1.30867,-0.0097 -1.30867,-0.17579 z M 0.87629459,17.572989 c -0.23578631,-0.01859 -0.42870246,-0.05347 -0.42870246,-0.07752 0,-0.02404 0.89747107,-1.108239 1.99438107,-2.409327 1.096909,-1.301084 2.013985,-2.413556 2.0379455,-2.472157 C 4.50388,12.555386 3.6046172,11.239425 2.4815573,9.6896287 1.3584974,8.1398325 0.45212655,6.8069047 0.46739943,6.7275671 0.49234883,6.5979624 0.9725614,6.580945 5.1972175,6.5599551 l 4.7020503,-0.023362 0.4637182,1.2656723 c 0.255047,0.6961197 0.463721,1.2853809 0.463721,1.3094694 0,0.024088 -0.08312,0.043796 -0.184705,0.043796 -0.115139,0 -0.242608,-0.1080784 -0.338449,-0.2869638 C 10.020628,8.3404935 9.4566815,7.805057 8.8891316,7.5256527 7.9760611,7.0761497 7.1548502,6.9830506 4.3453593,7.0105339 L 1.8869595,7.0345828 3.6578566,9.4714183 C 4.63185,10.811678 5.448225,11.955627 5.4720239,12.013529 c 0.023798,0.0579 -0.8589628,1.174784 -1.9616924,2.481962 l -2.0049633,2.376687 2.562283,0.026 c 2.7294995,0.02771 3.7506356,-0.05136 4.5562399,-0.352779 0.5926339,-0.221733 1.4114479,-0.944579 1.6292919,-1.438336 0.120309,-0.272686 0.207919,-0.355838 0.374916,-0.355838 0.136304,0 0.202375,0.04226 0.176413,0.112817 -0.02283,0.06205 -0.23144,0.685048 -0.46358,1.384443 l -0.4220733,1.271627 -2.637247,0.05944 c -2.6458493,0.05963 -5.6042119,0.05661 -6.40531711,-0.0065 z M 14.639866,16.714235 c 0.02862,-0.08592 0.643554,-0.118531 2.579736,-0.136785 2.221689,-0.02095 2.542168,-0.0068 2.542168,0.112816 0,0.119022 -0.335025,0.136785 -2.579735,0.136785 -2.023659,0 -2.571639,-0.02432 -2.542169,-0.112816 z m 0.03764,-1.391404 c -0.0331,-0.0331 -0.06017,-0.09401 -0.06017,-0.135379 0,-0.04137 1.157497,-0.07521 2.572216,-0.07521 2.226245,0 2.572215,0.01821 2.572215,0.13538 0,0.117095 -0.339284,0.13538 -2.512046,0.13538 -1.381626,0 -2.539123,-0.02707 -2.572215,-0.06017 z m -1.686945,-1.973199 c -0.253956,-0.305999 0.286575,-0.834851 0.593196,-0.580379 0.178943,0.14851 0.164552,0.389374 -0.034,0.569062 -0.206107,0.186524 -0.410355,0.190658 -0.559194,0.01131 z m -0.87348,-3.8933475 c -0.03177,-0.082782 0.07186,-0.6818375 0.230271,-1.3312339 0.158417,-0.6493966 0.287216,-1.3103194 0.286222,-1.4687174 -0.0036,-0.5677538 -0.372225,-0.4540499 -0.560008,0.1727178 -0.09703,0.3238576 -0.284741,0.5208363 -0.393084,0.4124932 -0.02254,-0.022534 0.02368,-0.2306967 0.102687,-0.4625836 0.259291,-0.760976 0.842387,-1.0001088 1.286219,-0.5274897 l 0.239281,0.2547995 0.401711,-0.2547995 c 0.973441,-0.6174414 1.902702,-0.032244 1.628333,1.0254336 -0.05557,0.2141977 -0.2083,0.7243278 -0.339414,1.1336225 -0.180046,0.5620479 -0.212914,0.7696452 -0.134301,0.8482583 0.159067,0.1590667 0.497858,-0.1062464 0.695583,-0.5447244 0.152935,-0.3391496 0.410556,-0.5095958 0.410556,-0.2716307 0,0.4423618 -0.665316,1.1643677 -1.072944,1.1643677 -0.560796,0 -0.798142,-0.5967204 -0.51084,-1.284328 0.227315,-0.5440432 0.4335,-1.4998212 0.37437,-1.7354124 -0.07514,-0.2993605 -0.405287,-0.3772587 -0.79107,-0.1866497 -0.515052,0.2544791 -0.707849,0.6028725 -1.021147,1.8452562 -0.1602,0.6352756 -0.319932,1.2014166 -0.354958,1.2580901 -0.09588,0.1551371 -0.41177,0.1237316 -0.477467,-0.04747 z"
       id="path1931" />
  </g>
</svg>
