<?xml version="1.0" encoding="UTF-8" standalone="no"?>
<svg
   viewBox="0 0 36 36"
   version="1.1"
   id="svg10"
   sodipodi:docname="latex-icon.svg"
   inkscape:version="1.1.2 (0a00cf5339, 2022-02-04)"
   xmlns:inkscape="http://www.inkscape.org/namespaces/inkscape"
   xmlns:sodipodi="http://sodipodi.sourceforge.net/DTD/sodipodi-0.dtd"
   xmlns="http://www.w3.org/2000/svg"
   xmlns:svg="http://www.w3.org/2000/svg">
  <defs
     id="defs14" />
  <sodipodi:namedview
     id="namedview12"
     pagecolor="#ffffff"
     bordercolor="#666666"
     borderopacity="1.0"
     inkscape:pageshadow="2"
     inkscape:pageopacity="0.0"
     inkscape:pagecheckerboard="0"
     showgrid="false"
     inkscape:zoom="14.835345"
     inkscape:cx="14.829449"
     inkscape:cy="19.986053"
     inkscape:window-width="1846"
     inkscape:window-height="1016"
     inkscape:window-x="74"
     inkscape:window-y="27"
     inkscape:window-maximized="1"
     inkscape:current-layer="svg10"
     inkscape:snap-global="true"
     inkscape:snap-bbox="true"
     inkscape:snap-page="true" />
  <rect
     style="fill:#9add99;stroke:none;stroke-width:1.068;stroke-linecap:round;stroke-linejoin:round;stroke-miterlimit:4;stroke-dasharray:none;stroke-opacity:1;paint-order:stroke fill markers;fill-opacity:1"
     id="rect1391"
     width="36"
     height="36"
     x="0"
     y="0"
     ry="3.1996937" />
  <path
     style="fill:#000000;stroke:none;stroke-width:0.843288;stroke-miterlimit:4;stroke-dasharray:none;stroke-opacity:1;paint-order:stroke fill markers"
     d="m 15.850216,25.240362 c -1.560546,-1.703059 -2.271878,-3.666554 -2.38797,-6.591515 -0.102028,-2.570642 0.319356,-4.632521 1.294084,-6.332065 0.455211,-0.793713 1.936569,-2.4308711 2.199537,-2.4308711 0.360498,0 0.297619,0.2371681 -0.23176,0.8741531 -0.719975,0.866324 -1.501434,2.501128 -1.796647,3.758567 -0.345995,1.473744 -0.338712,5.803651 0.01198,7.130572 0.418933,1.585068 1.024472,2.742431 2.242784,4.286622 0.09759,0.123693 0.04503,0.166149 -0.20571,0.166149 -0.244615,0 -0.552888,-0.235827 -1.126306,-0.861612 z m 12.782617,0.429626 c 1.172425,-1.431133 1.912355,-3.089166 2.205591,-4.942279 0.188591,-1.191807 0.187683,-4.357323 -0.0016,-5.400877 -0.185566,-1.023683 -0.618264,-2.436457 -0.939713,-3.068398 -0.13575,-0.266874 -0.5452,-0.874523 -0.909886,-1.350331 -0.526381,-0.68677 -0.62068,-0.881369 -0.45745,-0.9440073 0.45186,-0.1733948 1.82174,1.3684293 2.587683,2.9124833 0.806108,1.625027 1.089967,3.22222 1.015778,5.715498 -0.05302,1.78166 -0.103496,2.128538 -0.474525,3.260441 -0.228359,0.696667 -0.640911,1.639334 -0.916783,2.094816 -0.670821,1.107578 -1.707993,2.15464 -2.134281,2.15464 H 28.278936 Z M 4.6535071,25.476428 C 4.5438494,25.436342 4.3195492,25.281105 4.1550626,25.131456 3.814741,24.821833 3.7525062,24.056161 4.0372033,23.681435 c 0.4080619,-0.537099 1.3036857,-0.528376 1.4759489,0.01438 0.093628,0.294996 -0.1183545,0.785372 -0.4493712,1.039519 -0.1815427,0.139383 -0.1604472,0.162508 0.1515657,0.166149 0.6815744,0.0079 0.830436,-0.454218 1.7571211,-5.455281 0.3328859,-1.796493 0.6052471,-3.306778 0.6052471,-3.356192 0,-0.04941 -0.3254433,-0.08984 -0.7232075,-0.08984 -0.7687584,0 -0.9388627,-0.111031 -0.8069336,-0.526703 0.067564,-0.212874 0.2264091,-0.265439 0.900169,-0.297878 L 7.7658713,15.1362 8.0049197,13.939934 c 0.1314767,-0.657953 0.4031616,-1.525246 0.6037442,-1.927325 0.6452029,-1.293345 2.0549351,-1.711268 2.9049991,-0.861204 0.831123,0.831123 -0.13308,2.356663 -1.092274,1.728176 -0.4267496,-0.279618 -0.412512,-0.792282 0.03348,-1.205616 l 0.351706,-0.32595 h -0.413489 c -0.5314593,0 -0.6052136,0.148887 -0.9443756,1.906385 -0.3987702,2.066379 -0.4339455,1.948253 0.5801496,1.948253 0.920795,0 1.098694,0.107747 0.873285,0.528928 -0.12263,0.229137 -0.276691,0.268584 -1.0489774,0.268584 H 8.9479347 L 8.5821844,17.960714 C 8.0438792,20.846215 7.6367128,22.61421 7.3093216,23.487727 6.7459329,24.990913 5.6238476,25.831141 4.6535071,25.476428 Z M 19.458365,22.036887 c -0.888845,-0.438496 -0.948506,-1.779204 -0.09645,-2.167428 0.439483,-0.200241 0.65303,-0.185698 0.900023,0.06129 0.310555,0.310554 0.253362,0.82207 -0.135378,1.21081 -0.269199,0.269199 -0.305422,0.368863 -0.166147,0.457137 0.234951,0.14892 0.303022,0.145185 0.706787,-0.03877 0.187997,-0.08566 0.455512,-0.339864 0.594479,-0.564904 0.297916,-0.482443 1.202911,-3.978025 1.202911,-4.6463 0,-1.395475 -1.796005,-1.097612 -2.525453,0.41884 -0.258025,0.536411 -0.401141,0.69125 -0.640319,0.692762 -0.257543,0.0017 -0.293403,-0.04706 -0.218806,-0.297116 0.320313,-1.073711 1.371636,-2.135938 2.283284,-2.306964 0.606896,-0.113854 1.376689,0.126389 1.817528,0.567228 l 0.354,0.353998 0.362084,-0.337623 c 0.719291,-0.670705 1.320914,-0.799919 2.026225,-0.435189 0.482013,0.249259 0.66193,0.573306 0.66193,1.192194 0,0.817863 -0.948058,1.460463 -1.435518,0.973003 -0.2846,-0.284599 -0.191179,-0.992555 0.168286,-1.27531 0.387728,-0.304987 0.313761,-0.426047 -0.260313,-0.426047 -0.423727,0 -0.827349,0.318404 -1.095204,0.863969 -0.28266,0.575726 -1.126195,4.326202 -1.045412,4.648063 0.132428,0.527643 0.639302,0.790292 1.180468,0.611691 0.555487,-0.183326 1.211988,-0.848201 1.485854,-1.504805 0.14137,-0.338941 0.292395,-0.498444 0.471951,-0.498444 0.745434,0 -0.34722,1.884136 -1.383609,2.385841 -0.948835,0.459325 -1.736922,0.349952 -2.482956,-0.344594 l -0.342437,-0.318804 -0.255382,0.282193 c -0.585708,0.647203 -1.383087,0.812961 -2.132428,0.443286 z"
     id="path916" />
</svg>
